# xmcd
#
# Track frame offsets:
#	150
#	13951
#	25203
#	35864
#	49302
#	62815
#	74323
#	87608
#	100292
#	111855
#	125254
#	137340
#	148455
#	161287
#	173644
#	186038
#	196874
#	210204
#	222504
#	233695
#	243763
#
# Disc length: 3422 seconds
#
# Revision: 0
# Processed by: cddbd v1.5.2PL0 Copyright (c) Steve Scherf et al.
# Submitted via: audiograbber 1.83.01
#
DISCID=2f0d5c15
DTITLE=Various Artist - RandB Rockers Vol 1
DYEAR=1900
DGENRE=
TTITLE0=Crown Prince Waterford - Eatin Watermelon
TTITLE1=Robins - Wadda Ya Want
TTITLE2=Jesse Belvin with Three Dots and A Dash - Lets Do It
TTITLE3=Jesse Belvin - All That Wine Is Gone
TTITLE4=Ivory Joe Hunter - We're Gonna Boogie
TTITLE5=Clovers - All Night Boogie
TTITLE6=Detroit Junior - Chicken Shack Boogie
TTITLE7=Big Jay McNeely - The Deacons Hop
TTITLE8=Gene Phillips - Rock Bottom
TTITLE9=Big Joe Turner - Oke She Moke
TTITLE10=Harmonica Fats - My Baby Didnt Come Home
TTITLE11=Roy Milton - Information Blues
TTITLE12=Swallows - Roll Roll Pretty Baby
TTITLE13=Gene Phillip and His Rhythm Aces - Big Fat Mama
TTITLE14=H Bomb Ferguson - I Love My Baby
TTITLE15=H Bomb Ferguson - Shes Been Gone
TTITLE16=Roy Brown - Cadillac Baby
TTITLE17=Floyd Dixon - Dance The Thing
TTITLE18=Floyd Dixon - Please Dont Go
TTITLE19=Floyd Dixon - Oooh Little Girl
TTITLE20=Floyd Dixon - Hole In The Wall
EXTD=
EXTT0=
EXTT1=
EXTT2=
EXTT3=
EXTT4=
EXTT5=
EXTT6=
EXTT7=
EXTT8=
EXTT9=
EXTT10=
EXTT11=
EXTT12=
EXTT13=
EXTT14=
EXTT15=
EXTT16=
EXTT17=
EXTT18=
EXTT19=
EXTT20=
PLAYORDER=
